<?xml version="1.0" standalone="no"?>
<!DOCTYPE svg PUBLIC "-//W3C//DTD SVG 20010904//EN"
 "http://www.w3.org/TR/2001/REC-SVG-20010904/DTD/svg10.dtd">
<svg version="1.0" xmlns="http://www.w3.org/2000/svg"
 width="500.000000pt" height="500.000000pt" viewBox="0 0 500.000000 500.000000"
 preserveAspectRatio="xMidYMid meet">

<g transform="translate(0.000000,500.000000) scale(0.100000,-0.100000)"
fill="#000000" stroke="none">
<path d="M1560 3531 c-141 -5 -172 -10 -213 -28 -104 -48 -175 -128 -209 -235
-17 -56 -18 -107 -18 -745 0 -500 3 -697 12 -727 29 -102 128 -209 227 -247
l56 -21 1091 1 c1166 1 1112 -1 1211 50 86 43 158 158 174 277 6 51 9 311 7
724 -3 602 -5 648 -22 695 -44 117 -122 197 -236 242 -42 17 -109 18 -980 19
-514 0 -1009 -2 -1100 -5z m2084 -205 c71 -54 75 -74 76 -407 l2 -294 -254 -8
c-139 -4 -288 -6 -330 -5 l-78 3 0 -82 0 -83 330 0 330 0 1 -107 c3 -233 -4
-509 -13 -528 -15 -30 -60 -75 -88 -90 -20 -10 -250 -13 -1115 -16 l-1090 -4
-33 24 c-18 13 -45 42 -60 65 l-27 41 -3 685 c-2 604 -1 690 13 726 18 47 33
63 90 93 l40 21 1086 -2 1086 -3 37 -29z"/>
<path d="M1489 3207 c-40 -27 -59 -60 -59 -105 0 -65 52 -122 112 -122 54 0
128 75 128 130 0 56 -65 120 -123 120 -13 0 -39 -10 -58 -23z m93 -83 c23 -50
-34 -87 -66 -42 -20 28 -20 33 0 52 23 24 53 19 66 -10z"/>
<path d="M3035 3199 c-30 -27 -35 -37 -35 -76 0 -37 5 -50 30 -73 l30 -28 2
-172 3 -172 44 -4 43 -4 -3 178 c-4 163 -2 180 14 197 48 48 47 97 -2 146 -48
48 -78 50 -126 8z m95 -60 c16 -29 -13 -63 -42 -48 -26 14 -33 36 -18 54 18
21 47 18 60 -6z"/>
<path d="M3274 3211 c-54 -33 -68 -136 -23 -164 17 -11 19 -27 19 -194 l0
-183 45 0 45 0 0 174 c0 108 4 177 10 181 6 4 20 25 31 47 28 54 19 99 -25
133 -39 30 -61 31 -102 6z m74 -63 c34 -34 -7 -79 -46 -52 -12 8 -22 21 -22
28 0 17 21 36 40 36 9 0 21 -5 28 -12z"/>
<path d="M3482 3203 c-18 -16 -33 -37 -34 -48 -3 -48 4 -74 26 -98 24 -26 24
-26 19 -205 l-6 -178 40 0 40 1 7 95 c3 52 6 130 6 173 0 74 2 81 29 106 56
52 52 117 -8 158 -45 30 -80 29 -119 -4z m86 -45 c17 -17 15 -43 -4 -59 -31
-26 -70 25 -44 56 15 18 32 19 48 3z"/>
<path d="M2305 3119 c-167 -13 -316 -95 -416 -229 -136 -182 -155 -423 -49
-636 93 -188 272 -307 484 -320 168 -11 314 42 427 155 146 146 195 272 187
477 -8 194 -81 330 -240 449 -109 81 -239 116 -393 104z m210 -245 c75 -37
145 -106 181 -180 24 -49 29 -74 32 -154 5 -126 -17 -186 -98 -274 -110 -117
-233 -151 -381 -106 -64 19 -81 30 -139 88 -77 77 -103 123 -120 210 -34 172
41 331 192 408 74 38 102 44 194 40 64 -3 92 -9 139 -32z"/>
<path d="M2328 2670 c-91 -27 -142 -127 -109 -213 12 -32 56 -76 88 -88 37
-14 100 -11 134 7 40 20 89 99 89 142 0 69 -44 124 -119 150 -38 13 -45 14
-83 2z m80 -107 c35 -30 38 -68 8 -97 -32 -33 -60 -33 -91 -1 -30 30 -31 54
-4 89 24 30 58 34 87 9z"/>
<path d="M1446 2845 c-3 -11 -6 -239 -6 -507 l0 -488 100 0 100 0 0 433 c0
239 3 467 6 508 l7 74 -101 0 c-92 0 -101 -2 -106 -20z"/>
<path d="M3066 2374 c-3 -9 -6 -86 -6 -172 l0 -157 -30 -28 c-92 -88 35 -223
135 -143 25 20 30 31 30 69 0 37 -6 52 -29 76 l-28 30 7 170 7 171 -40 0 c-27
0 -42 -5 -46 -16z m69 -429 c0 -10 -8 -23 -17 -29 -38 -23 -78 35 -42 61 15
11 21 11 38 -1 12 -7 21 -21 21 -31z"/>
<path d="M3277 2384 c-4 -4 -7 -88 -7 -186 0 -98 -4 -178 -8 -178 -14 0 -32
-48 -32 -83 0 -43 22 -73 64 -87 99 -32 172 92 96 165 l-30 28 -2 171 -3 171
-35 3 c-20 2 -39 0 -43 -4z m84 -425 c9 -18 7 -25 -9 -41 -16 -16 -23 -18 -41
-9 -23 13 -29 56 -8 64 26 11 47 6 58 -14z"/>
<path d="M3493 2213 l6 -178 -24 -24 c-67 -63 2 -183 94 -165 34 7 77 51 87
89 7 29 -17 77 -49 94 -23 12 -24 19 -31 133 -3 67 -6 145 -6 175 l0 53 -42 0
-41 0 6 -177z m91 -248 c12 -33 -19 -61 -54 -50 -24 8 -33 34 -19 51 15 19 65
18 73 -1z"/>
</g>
</svg>
